<svg width="21" height="21" viewBox="0 0 21 21" fill="none" xmlns="http://www.w3.org/2000/svg">
<path d="M10.7028 8.04723C11.9828 8.10723 12.3128 9.19723 12.3328 9.70723H14.1228C14.0428 7.72723 12.6328 6.51723 10.6728 6.51723C8.46275 6.51723 6.82275 7.90723 6.82275 11.0472C6.82275 12.9872 7.75275 15.2872 10.6628 15.2872C12.8828 15.2872 14.0728 13.6372 14.1028 12.3372H12.3128C12.2828 12.9272 11.8628 13.7172 10.6828 13.7772C9.37275 13.7372 8.82275 12.7172 8.82275 11.0472C8.82275 8.15723 10.1028 8.06723 10.7028 8.04723ZM10.8228 0.907227C5.30275 0.907227 0.822754 5.38723 0.822754 10.9072C0.822754 16.4272 5.30275 20.9072 10.8228 20.9072C16.3428 20.9072 20.8228 16.4272 20.8228 10.9072C20.8228 5.38723 16.3428 0.907227 10.8228 0.907227ZM10.8228 18.9072C6.41275 18.9072 2.82275 15.3172 2.82275 10.9072C2.82275 6.49723 6.41275 2.90723 10.8228 2.90723C15.2328 2.90723 18.8228 6.49723 18.8228 10.9072C18.8228 15.3172 15.2328 18.9072 10.8228 18.9072Z" fill="white"/>
</svg>
